<?xml version="1.0" standalone="no"?><!DOCTYPE svg PUBLIC "-//W3C//DTD SVG 1.1//EN" "http://www.w3.org/Graphics/SVG/1.1/DTD/svg11.dtd"><svg t="1700814758293" class="icon" viewBox="0 0 1024 1024" version="1.1" xmlns="http://www.w3.org/2000/svg" p-id="4110" width="128" height="128" data-spm-anchor-id="a313x.search_index.0.i6.40053a81UQUje4" xmlns:xlink="http://www.w3.org/1999/xlink"><path d="M512 334.8c-97.4 0-176.6 79.2-176.6 176.6 0 97.4 79.2 176.6 176.6 176.6 97.4 0 176.6-79.2 176.6-176.6 0-97.4-79.2-176.6-176.6-176.6z m0 317.8c-77.8 0-141.1-63.3-141.1-141.1S434.2 370.3 512 370.3s141.1 63.3 141.1 141.2c0 77.7-63.3 141.1-141.1 141.1z m0 0" fill="#558DF7" p-id="4111"></path><path d="M512 696c-101.8 0-184.6-82.8-184.6-184.6S410.2 326.8 512 326.8s184.6 82.8 184.6 184.6S613.8 696 512 696z m0-353.2c-93 0-168.6 75.6-168.6 168.6S419 680 512 680s168.6-75.6 168.6-168.6S605 342.8 512 342.8z m0 317.8c-82.2 0-149.1-66.9-149.1-149.1 0-82.2 66.9-149.2 149.1-149.2s149.1 66.9 149.1 149.2c0 82.2-66.9 149.1-149.1 149.1z m0-282.3c-73.4 0-133.1 59.7-133.1 133.2 0 73.4 59.7 133.1 133.1 133.1s133.1-59.7 133.1-133.1c0-73.5-59.7-133.2-133.1-133.2z" fill="#558DF7" p-id="4112"></path><path d="M512 252.4c16.3 0 29.6-13.2 29.6-29.6v-91.5c0-16.3-13.2-29.6-29.6-29.6-16.3 0-29.6 13.2-29.6 29.6v91.5c0 16.3 13.2 29.6 29.6 29.6z m0 0M512 770.5c-16.3 0-29.6 13.2-29.6 29.6v91.5c0 16.3 13.2 29.6 29.6 29.6 16.3 0 29.6-13.2 29.6-29.6V800c-0.1-16.3-13.3-29.5-29.6-29.5z m0 0M287 328.2c5.8 5.8 13.3 8.7 20.9 8.7 7.6 0 15.1-2.9 20.9-8.7 11.5-11.5 11.5-30.3 0-41.8l-64.7-64.7c-11.5-11.5-30.3-11.5-41.8 0s-11.5 30.3 0 41.8l64.7 64.7z m0 0M737 694.6c-11.5-11.5-30.3-11.5-41.8 0-11.5 11.5-11.5 30.3 0 41.8l64.7 64.7c5.8 5.8 13.3 8.7 20.9 8.7 7.6 0 15.1-2.9 20.9-8.7 11.5-11.5 11.5-30.3 0-41.8L737 694.6z m0 0M252.9 511.4c0-16.3-13.2-29.6-29.6-29.6h-91.5c-16.3 0-29.6 13.2-29.6 29.6 0 16.3 13.2 29.6 29.6 29.6h91.5c16.4 0 29.6-13.3 29.6-29.6z m0 0M892.2 481.9h-91.5c-16.3 0-29.6 13.2-29.6 29.6 0 16.3 13.2 29.6 29.6 29.6h91.5c16.3 0 29.6-13.2 29.6-29.6-0.1-16.4-13.3-29.6-29.6-29.6z m0 0M287 694.6l-64.7 64.7c-11.5 11.5-11.5 30.3 0 41.8 5.8 5.8 13.3 8.7 20.9 8.7 7.6 0 15.1-2.9 20.9-8.7l64.7-64.7c11.5-11.5 11.5-30.3 0-41.8-11.6-11.5-30.3-11.5-41.8 0z m0 0M716.1 336.9c7.6 0 15.1-2.9 20.9-8.7l64.7-64.7c11.5-11.5 11.5-30.3 0-41.8-11.6-11.5-30.3-11.5-41.8 0l-64.7 64.7c-11.5 11.5-11.5 30.3 0 41.8 5.7 5.8 13.3 8.7 20.9 8.7z m0 0" fill="#294D7C" p-id="4113" data-spm-anchor-id="a313x.search_index.0.i5.40053a81UQUje4" class="selected"></path></svg>